<svg width="189" height="35" fill="none" xmlns="http://www.w3.org/2000/svg"><path d="M67.447 17.228c-1.342 2.176-3.25 3.428-5.724 3.428-3.576 0-6.2-2.891-6.2-6.617s2.504-6.588 6.26-6.588a6.358 6.358 0 015.604 3.369l3.458-2.743c-1.759-3.13-4.948-5.008-9.002-5.008-6.499 0-11.06 4.83-11.06 10.97 0 6.14 4.65 11 11 11 3.995 0 7.333-2.117 9.151-5.128l-3.487-2.683zM80.403 9.03c-4.769 0-8.197 3.459-8.197 7.99 0 4.5 3.428 8.018 8.197 8.018 4.77 0 8.198-3.517 8.198-8.018 0-4.531-3.428-7.99-8.198-7.99zm0 4.025c2.057 0 3.607 1.58 3.607 3.965 0 2.384-1.55 3.994-3.607 3.994-2.056 0-3.606-1.61-3.606-3.994 0-2.385 1.55-3.965 3.606-3.965zm11.159-3.666V24.68h4.531v-7.959c0-1.997 1.044-3.696 2.951-3.696 1.67 0 2.742 1.044 2.742 3.04v8.615h4.532v-7.959c0-1.997 1.044-3.696 2.951-3.696 1.669 0 2.713 1.044 2.713 3.04v8.615h4.53v-9.3c0-3.964-2.234-6.35-5.902-6.35-2.593 0-4.054 1.134-5.156 2.684-1.044-1.7-2.713-2.683-5.068-2.683-1.998 0-3.488.775-4.471 2.325V9.389h-4.353zm36.838 3.636c1.938 0 3.546 1.58 3.546 4.054 0 2.385-1.608 3.965-3.546 3.965-2.027 0-3.607-1.55-3.607-3.965 0-2.504 1.58-4.054 3.607-4.054zm-3.816-3.636h-4.202v21.253h4.53v-7.63c.954 1.43 2.773 2.026 4.412 2.026 4.174 0 7.184-3.458 7.184-8.018 0-4.71-3.249-7.99-7.154-7.99-1.491 0-3.578.627-4.77 2.475V9.389zm22.823 5.783l-4.173.804c-3.22.686-4.979 2.236-4.979 4.501 0 2.653 2.087 4.561 5.068 4.561 2.027 0 3.518-.894 4.233-2.236v1.878h4.202v-9.628c0-3.726-2.533-6.021-6.795-6.021-2.862 0-5.157 1.192-6.558 2.891l2.355 2.862c.924-1.043 2.234-1.848 3.934-1.848 1.55 0 2.713.596 2.713 2.116v.12zm-3.07 6.498c-1.073 0-1.759-.596-1.759-1.46 0-.835.597-1.372 1.818-1.58l3.04-.597v.447c0 1.819-1.222 3.19-3.099 3.19zm11.239-12.281V24.68h4.53v-7.959c0-1.997 1.043-3.696 3.012-3.696 1.669 0 2.742 1.044 2.742 3.04v8.615h4.531v-9.3c0-3.964-2.267-6.35-5.933-6.35-2.056 0-3.546.776-4.531 2.326V9.389h-4.351zm22.212 14.725l-.178.507c-.656 2.176-1.759 2.564-2.951 2.564-.507 0-1.282-.06-2.087-.507v3.756c.686.328 1.669.566 2.742.566 2.892 0 4.74-1.371 6.261-5.068l6.676-16.543h-4.62l-3.577 10.015-3.547-10.015h-4.739l6.02 14.725z" fill="#E00000"/><g filter="url(#filter0_d_104_560)"><path d="M22.89 1.59h-3.36c-.465 0-.842.468-.842 1.047V26.49c0 .578.377 1.047.842 1.047h3.359c.465 0 .842-.47.842-1.047V2.637c0-.579-.377-1.047-.842-1.047z" fill="#E00000"/></g><path d="M23.394 1h-4.367c-.605 0-1.095.49-1.095 1.095v24.937c0 .605.49 1.095 1.095 1.095h4.367c.605 0 1.095-.49 1.095-1.095V2.094c0-.604-.49-1.094-1.095-1.094z" fill="#E00000"/><g filter="url(#filter1_d_104_560)"><path d="M33.285 27.537a4.984 4.984 0 100-9.968 4.984 4.984 0 000 9.968z" fill="#E00000"/></g><path d="M33.285 28.127a5.573 5.573 0 100-11.147 5.573 5.573 0 000 11.146z" fill="#E00000"/><g filter="url(#filter2_d_104_560)"><path d="M33.285 10.819a4.246 4.246 0 100-8.492 4.246 4.246 0 000 8.492z" fill="#E00000"/></g><path d="M33.285 12.146a5.573 5.573 0 100-11.146 5.573 5.573 0 000 11.146z" fill="#E00000"/><g filter="url(#filter3_d_104_560)"><path d="M9.136 27.537a4.984 4.984 0 100-9.968 4.984 4.984 0 000 9.968z" fill="#E00000"/></g><path d="M9.136 28.127a5.573 5.573 0 100-11.147 5.573 5.573 0 000 11.146z" fill="#E00000"/><defs><filter id="filter0_d_104_560" x="14.689" y=".59" width="13.043" height="33.948" filterUnits="userSpaceOnUse" color-interpolation-filters="sRGB"><feFlood flood-opacity="0" result="BackgroundImageFix"/><feColorMatrix in="SourceAlpha" values="0 0 0 0 0 0 0 0 0 0 0 0 0 0 0 0 0 0 127 0" result="hardAlpha"/><feOffset dy="3"/><feGaussianBlur stdDeviation="2"/><feColorMatrix values="0 0 0 0 0.956863 0 0 0 0 0.14902 0 0 0 0 0.243137 0 0 0 0.15 0"/><feBlend in2="BackgroundImageFix" result="effect1_dropShadow_104_560"/><feBlend in="SourceGraphic" in2="effect1_dropShadow_104_560" result="shape"/></filter><filter id="filter1_d_104_560" x="24.302" y="16.57" width="17.968" height="17.968" filterUnits="userSpaceOnUse" color-interpolation-filters="sRGB"><feFlood flood-opacity="0" result="BackgroundImageFix"/><feColorMatrix in="SourceAlpha" values="0 0 0 0 0 0 0 0 0 0 0 0 0 0 0 0 0 0 127 0" result="hardAlpha"/><feOffset dy="3"/><feGaussianBlur stdDeviation="2"/><feColorMatrix values="0 0 0 0 0.104167 0 0 0 0 0.4625 0 0 0 0 1 0 0 0 0.15 0"/><feBlend in2="BackgroundImageFix" result="effect1_dropShadow_104_560"/><feBlend in="SourceGraphic" in2="effect1_dropShadow_104_560" result="shape"/></filter><filter id="filter2_d_104_560" x="25.04" y="1.327" width="16.492" height="16.492" filterUnits="userSpaceOnUse" color-interpolation-filters="sRGB"><feFlood flood-opacity="0" result="BackgroundImageFix"/><feColorMatrix in="SourceAlpha" values="0 0 0 0 0 0 0 0 0 0 0 0 0 0 0 0 0 0 127 0" result="hardAlpha"/><feOffset dy="3"/><feGaussianBlur stdDeviation="2"/><feColorMatrix values="0 0 0 0 1 0 0 0 0 0.80475 0 0 0 0 0.1125 0 0 0 0.3 0"/><feBlend in2="BackgroundImageFix" result="effect1_dropShadow_104_560"/><feBlend in="SourceGraphic" in2="effect1_dropShadow_104_560" result="shape"/></filter><filter id="filter3_d_104_560" x=".152" y="16.57" width="17.968" height="17.968" filterUnits="userSpaceOnUse" color-interpolation-filters="sRGB"><feFlood flood-opacity="0" result="BackgroundImageFix"/><feColorMatrix in="SourceAlpha" values="0 0 0 0 0 0 0 0 0 0 0 0 0 0 0 0 0 0 127 0" result="hardAlpha"/><feOffset dy="3"/><feGaussianBlur stdDeviation="2"/><feColorMatrix values="0 0 0 0 0.470588 0 0 0 0 0.172549 0 0 0 0 0.894118 0 0 0 0.15 0"/><feBlend in2="BackgroundImageFix" result="effect1_dropShadow_104_560"/><feBlend in="SourceGraphic" in2="effect1_dropShadow_104_560" result="shape"/></filter></defs></svg>