<svg width="155" height="30" fill="none" xmlns="http://www.w3.org/2000/svg"><path d="M10.652 29.538H4.873v-14.56H.936v-4.74h3.937V6.863C4.873 2.867 6.614 0 12.377 0c1.22 0 3.133.248 3.133.248V4.65H13.5c-2.048 0-2.848.63-2.848 2.37v3.217h4.781l-.426 4.74h-4.355v14.56zm13.26-19.68c-.084 0-.171.003-.257.006-5.358 0-7.81 4.073-7.81 9.856 0 7.285 3.18 10.2 7.852 10.2 2.673 0 4.43-1.136 5.497-3.259v2.879h5.496v-19.3h-5.496v2.967c-.872-1.91-2.677-3.326-5.282-3.349zm1.397 4.56c2.25 0 3.602 1.588 3.602 4.286l.005 2.757c0 1.819-1.116 3.947-3.607 3.947-3.83 0-3.727-4.18-3.727-5.571 0-4.683 2.04-5.418 3.727-5.418zm11.6 5.472c0-2.345-.11-10.02 9.782-10.02 3.971 0 5.63 1.277 5.63 1.277l-1.333 4.178s-1.656-.922-3.814-.922c-2.764 0-4.527 1.62-4.527 4.469l.003 2.043c0 2.737 1.701 4.565 4.53 4.565 1.966 0 3.777-.93 3.777-.93l1.33 4.09s-1.516 1.284-5.568 1.284c-9.42 0-9.809-6.885-9.809-10.034zM84.55 9.864c5.359 0 7.849 4.073 7.849 9.856 0 7.285-3.18 10.2-7.852 10.2-2.673 0-4.65-1.136-5.717-3.259v2.879l-5.427-.002V.587l5.763-.508v12.867c.831-2.251 3.564-3.082 5.384-3.082zm-1.616 4.555c-2.25 0-3.768 1.587-3.768 4.285l-.006 2.757c-.003 1.819 1.052 3.947 3.774 3.947 3.83 0 3.728-4.18 3.728-5.571 0-4.683-2.04-5.418-3.728-5.418zM62.32 9.879c-6.078 0-9.286 3.35-9.286 9.302v1.105c0 7.725 4.506 9.714 9.878 9.714 5.221 0 7.585-1.476 7.585-1.476l-1.079-3.931s-2.78 1.196-5.816 1.196c-3.147 0-4.5-.811-4.847-3.868h12.202v-3.153c0-6.457-3.6-8.889-8.637-8.889zm.147 3.937c2.103 0 3.467 1.304 3.392 4.328h-7.093c.123-3.183 1.593-4.328 3.7-4.328zm41.422-3.963c-6.241 0-9.527 3.555-9.527 9.925 0 8.741 5.664 10.148 9.538 10.148 5.67 0 9.444-3.086 9.444-10.068 0-7.268-4.243-10.005-9.455-10.005zm-.078 4.582c2.744 0 3.831 2.076 3.831 4.439v2.031c0 2.863-1.521 4.519-3.842 4.519-2.17 0-3.696-1.549-3.696-4.519v-2.031c0-3.167 1.815-4.44 3.707-4.44zm21.012-4.582c-6.241 0-9.528 3.555-9.528 9.925 0 8.741 5.665 10.148 9.538 10.148 5.671 0 9.444-3.086 9.444-10.068 0-7.268-4.242-10.005-9.454-10.005zm-.079 4.582c2.745 0 3.832 2.076 3.832 4.439v2.031c0 2.863-1.521 4.519-3.842 4.519-2.17 0-3.695-1.549-3.695-4.519v-2.031c0-3.167 1.814-4.44 3.705-4.44zm11.71 15.103V.587l5.78-.508v19.404l5.734-9.246h6.103l-5.981 9.577 6.211 9.724h-6.121l-5.946-9.442v9.442h-5.78z" fill="#2D88FF"/></svg>