<svg width="50" height="50" fill="none" xmlns="http://www.w3.org/2000/svg"><path d="M25.02 12.261a.938.938 0 100 1.876.938.938 0 000-1.876z" fill="#00E1BE" stroke="#00E1BE" stroke-width=".299"/><path d="M1.478 23.378c.31.183.698.172.997-.029 3.033-2.028 7.596-2.057 10.674-.084.167.15.386.242.628.242h.01a.934.934 0 00.539-.158 9.113 9.113 0 019.753-.26V44.32a4.686 4.686 0 109.375 0v-3.75a.938.938 0 00-1.875 0v3.75a2.812 2.812 0 11-5.625 0V23.09a9.112 9.112 0 019.753.26c.158.106.34.159.52.159l.02-.002h.01c.24 0 .46-.091.626-.241 3.078-1.973 7.642-1.944 10.675.084a.937.937 0 001.455-.856c-.99-11.995-11.662-21.485-23.997-21.485-12.328 0-23.006 9.482-23.996 21.485a.938.938 0 00.458.885zm24.476-2.41v-4.023a.938.938 0 00-1.875 0v4.022a10.971 10.971 0 00-9.294-.02c.605-9.482 4.544-17.08 9.294-17.975v6.473a.938.938 0 001.875 0V2.972c4.75.894 8.689 8.493 9.294 17.975a10.97 10.97 0 00-9.294.02zm20.964-.084a12.173 12.173 0 00-4.746-.953h-.018c-1.776 0-3.51.374-5.023 1.069-.348-5.887-2.147-13.213-6.294-17.324 8.131 2.245 14.65 9.016 16.081 17.208zM19.196 3.676C15.048 7.788 13.25 15.112 12.902 21c-3.027-1.39-6.74-1.42-9.787-.116 1.43-8.192 7.95-14.963 16.081-17.208z" fill="#00E1BE" stroke="#00E1BE" stroke-width=".299"/><path d="M11.426 41.44c-.4 0-.833-.252-1.217-.71a.937.937 0 10-1.435 1.207c.5.596 1.09 1.012 1.715 1.221v1.094a.938.938 0 001.875 0v-1.099a2.817 2.817 0 001.875-2.65 2.816 2.816 0 00-2.813-2.813.939.939 0 010-1.875c.332 0 .683.17 1.014.49a.937.937 0 101.304-1.348 3.642 3.642 0 00-1.38-.863v-1.092a.938.938 0 00-1.875 0v1.099a2.817 2.817 0 00-1.875 2.651 2.816 2.816 0 002.812 2.813.939.939 0 010 1.875z" fill="#00E1BE" stroke="#00E1BE" stroke-width=".299"/><path d="M11.329 49.007c5.686 0 10.312-4.626 10.312-10.312 0-5.687-4.626-10.313-10.312-10.313-5.686 0-10.313 4.626-10.313 10.313 0 5.686 4.627 10.312 10.313 10.312zm0-18.75c4.652 0 8.437 3.785 8.437 8.438 0 4.652-3.785 8.437-8.437 8.437-4.653 0-8.438-3.785-8.438-8.437 0-4.653 3.785-8.438 8.438-8.438z" fill="#00E1BE" stroke="#00E1BE" stroke-width=".299"/></svg>