<svg width="48" height="49" fill="none" xmlns="http://www.w3.org/2000/svg"><path d="M39.837 4.201l-.005.154h6.096c.66 0 1.206.558 1.206 1.257 0 6.278-1.582 12.194-4.447 16.66-2.833 4.414-6.591 6.925-10.632 7.17l-.061.003-.041.046c-.922 1.04-1.895 1.887-2.905 2.53l-.07.045v6.482h2.425c2.662 0 4.838 2.248 4.838 5.022v2.508h.245c.662 0 1.207.558 1.207 1.257 0 .7-.545 1.257-1.207 1.257H11.794c-.662 0-1.207-.557-1.207-1.257 0-.699.545-1.257 1.207-1.257h.246V43.57c0-2.774 2.175-5.023 4.837-5.023h2.425v-6.481l-.07-.044c-1.01-.644-1.982-1.49-2.904-2.53l-.041-.047-.062-.003c-4.04-.245-7.799-2.756-10.631-7.17l-.126.08.126-.08C2.728 17.805 1.146 11.89 1.146 5.611c0-.7.545-1.257 1.207-1.257h6.094L8.442 4.2a65.087 65.087 0 01-.034-2.053c0-.7.546-1.257 1.207-1.257h29.05c.66 0 1.206.558 1.206 1.257 0 .688-.012 1.373-.034 2.053zM3.737 6.87h-.155l.006.156c.214 5.242 1.617 10.117 4.012 13.85 1.732 2.7 3.842 4.57 6.134 5.469l.402.157-.219-.372a29.109 29.109 0 01-1.126-2.115l-.135.065.135-.065C10.53 19.325 9.08 13.41 8.593 7.007l-.01-.138H3.736zm29.94 39.21h.15v-2.51c0-1.378-1.083-2.509-2.425-2.509H16.877c-1.342 0-2.424 1.13-2.424 2.509v2.509h19.224zm-7.262-7.532h.15v-5.374l-.19.052a8.46 8.46 0 01-2.235.304 8.46 8.46 0 01-2.236-.304l-.19-.052v5.374h4.7zm.898-8.385l.007-.003.006-.004c1.083-.594 2.126-1.487 3.108-2.655l.005-.006.005-.007c.045-.068.097-.13.154-.187l.006-.006.005-.006c.974-1.2 1.889-2.673 2.722-4.402 2.504-5.192 3.946-12.01 4.11-19.328l.004-.153H10.834l.003.153c.165 7.317 1.607 14.135 4.11 19.328.834 1.73 1.749 3.202 2.723 4.402l.005.006.006.005c.057.057.108.12.154.188l.005.006.005.006c.982 1.168 2.024 2.062 3.107 2.655v.001l.012.005c.055.024.107.052.158.084h0l.011.006c.977.503 1.985.766 3.007.766s2.03-.263 3.007-.767h0l.01-.006c.051-.031.103-.059.156-.081zm7.049-4.033l-.22.372.403-.157c2.292-.898 4.402-2.77 6.134-5.47 2.395-3.732 3.798-8.607 4.012-13.85l.006-.155h-5l-.01.138c-.49 6.404-1.938 12.318-4.199 17.007l.135.065-.135-.065c-.36.746-.736 1.451-1.126 2.115z" fill="#00E1BE" stroke="#fff" stroke-width=".299"/></svg>