<svg width="49" height="50" fill="none" xmlns="http://www.w3.org/2000/svg"><path d="M36.98 28.424h-7.243v-4.098c0-.838 0-2.24-.729-3.485-.905-1.546-2.584-2.33-4.99-2.33a1.144 1.144 0 00-1.144 1.145v5.87l-2.047 3.328-2.528 1.65v-.936a1.144 1.144 0 00-1.143-1.144H9.53a1.144 1.144 0 00-1.144 1.144v18.3A1.144 1.144 0 009.53 49.01h7.625a1.14 1.14 0 00.976-.55 4.166 4.166 0 002.073.55h15.25a3.428 3.428 0 002.874-5.302 3.426 3.426 0 00.763-4.575 3.427 3.427 0 00.444-4.99 3.43 3.43 0 00-2.556-5.72zm-20.968 18.3h-5.338V30.712h5.338v16.012zm20.253-.336a1.14 1.14 0 01-.81.336h-15.25a1.908 1.908 0 01-1.906-1.906v-11.58l4.152-2.712a1.158 1.158 0 00.502-.761l2.04-3.314c.11-.18.169-.388.169-.6v-4.966c2.095.356 2.287 1.774 2.287 3.44v5.243a1.144 1.144 0 001.144 1.144h8.387a1.144 1.144 0 010 2.287h-2.287a1.144 1.144 0 000 2.288h2.287a1.144 1.144 0 010 2.287h-2.287a1.144 1.144 0 000 2.288h1.525a1.144 1.144 0 010 2.287h-1.525a1.144 1.144 0 000 2.288h.762a1.143 1.143 0 01.81 1.951z" fill="#00E1BE"/><path d="M13.345 46.057a1.143 1.143 0 100-2.287 1.143 1.143 0 000 2.287zm6.068-35.319l-.696 4.056a1.143 1.143 0 001.66 1.205l3.642-1.914 3.642 1.914c.798.455 1.845-.305 1.66-1.205l-.696-4.056 2.947-2.872a1.144 1.144 0 00-.634-1.95l-4.072-.592-1.821-3.69a1.143 1.143 0 00-2.052 0l-1.82 3.69-4.073.591a1.144 1.144 0 00-.633 1.951l2.946 2.872zm2.683-3.237a1.143 1.143 0 00.861-.626l1.062-2.15 1.062 2.15a1.144 1.144 0 00.86.626l2.374.345-1.717 1.674a1.143 1.143 0 00-.33 1.012l.406 2.364-2.123-1.116a1.144 1.144 0 00-1.064 0l-2.123 1.116.405-2.364a1.144 1.144 0 00-.329-1.012l-1.717-1.674 2.373-.345zm25.47 10.479l-3.292-2.47.167-4.11a1.143 1.143 0 00-1.801-.982l-3.365 2.368-3.858-1.43a1.144 1.144 0 00-1.49 1.41l1.212 3.931-2.552 3.228a1.144 1.144 0 00.88 1.853l4.114.062 2.281 3.425c.487.783 1.765.614 2.034-.264l1.33-3.894 3.962-1.112a1.143 1.143 0 00.378-2.016zm-5.536 1.087a1.144 1.144 0 00-.773.731l-.776 2.27-1.33-1.996a1.144 1.144 0 00-.934-.51l-2.399-.036 1.488-1.882a1.143 1.143 0 00.196-1.046l-.707-2.292 2.25.834a1.144 1.144 0 001.055-.138l1.961-1.38-.097 2.396a1.143 1.143 0 00.456.962l1.92 1.44-2.31.647zm-27.455 2.711c.92.016 1.473-1.15.88-1.853l-2.552-3.227 1.212-3.933a1.143 1.143 0 00-1.49-1.41l-3.859 1.43-3.364-2.367a1.144 1.144 0 00-1.801.981l.167 4.112-3.292 2.468a1.144 1.144 0 00.377 2.017l3.962 1.11 1.33 3.895c.27.878 1.547 1.047 2.034.264l2.282-3.425 4.114-.062zM8.89 20.072l-1.33 1.996-.775-2.27a1.144 1.144 0 00-.773-.731l-2.31-.648 1.92-1.44a1.144 1.144 0 00.456-.96l-.098-2.397 1.962 1.38a1.143 1.143 0 001.055.138l2.25-.834-.707 2.292a1.144 1.144 0 00.196 1.046l1.487 1.882-2.398.036a1.143 1.143 0 00-.935.51z" fill="#00E1BE"/></svg>