<svg width="106" height="112" fill="none" xmlns="http://www.w3.org/2000/svg"><path d="M49.017 2.3a7.966 7.966 0 017.966 0l37.309 21.54a7.966 7.966 0 013.983 6.899v43.08a7.966 7.966 0 01-3.983 6.9l-37.309 21.54a7.967 7.967 0 01-7.966 0l-37.309-21.54a7.966 7.966 0 01-3.983-6.9V30.74a7.966 7.966 0 013.983-6.9L49.017 2.3z" fill="url(#paint0_linear_1_121)" fill-opacity=".2"/><path d="M87.212 78.795H63.939v-11.85a5.673 5.673 0 011.522.849 5.922 5.922 0 011.827 2.406 2.109 2.109 0 003.901 0c.693-1.684 2.136-2.926 3.959-3.408 1.82-.482 3.684-.116 5.114 1.002A5.922 5.922 0 0182.09 70.2a2.109 2.109 0 004.06-.803v-5.52c0-13.405-10.906-24.311-24.311-24.311h-.06C48.4 39.6 37.526 50.492 37.526 63.877v5.52a2.11 2.11 0 004.06.802c.693-1.683 2.136-2.925 3.96-3.407 1.819-.482 3.683-.116 5.114 1.002a5.922 5.922 0 011.827 2.406 2.11 2.11 0 003.901-.001c.61-1.485 1.807-2.626 3.332-3.205v11.8H36.464a2.11 2.11 0 00-2.11 2.11v28.552a2.11 2.11 0 002.11 2.11h50.748a2.11 2.11 0 002.11-2.11V80.904a2.11 2.11 0 00-2.11-2.11zM81.93 63.824c-2.324-1.426-5.13-1.833-7.861-1.11-.98.258-1.896.65-2.73 1.154V61.59a32.614 32.614 0 00-4.962-17.287c8.883 2.06 15.528 10.027 15.553 19.522zm-34.797-1.461c-.885 0-1.78.115-2.667.35a10.4 10.4 0 00-2.722 1.149c.008-9.507 6.651-17.49 15.54-19.557a32.617 32.617 0 00-4.95 17.265v2.261a9.896 9.896 0 00-5.201-1.468zm9.42 1.495V61.57c0-5.93 1.86-11.694 5.277-16.483a28.395 28.395 0 015.29 16.502v2.23c-2.321-1.422-5.124-1.828-7.853-1.106-.974.258-1.884.646-2.713 1.145zm28.549 43.489h-46.53V83.014h46.53v24.333z" fill="#00E1BE"/><path d="M61.84 102.972c4.294 0 7.788-3.494 7.788-7.789 0-4.294-3.494-7.788-7.789-7.788s-7.789 3.494-7.789 7.789c0 4.294 3.494 7.788 7.79 7.788zm0-11.358a3.574 3.574 0 013.57 3.57 3.574 3.574 0 01-3.57 3.57 3.574 3.574 0 01-3.571-3.57 3.574 3.574 0 013.57-3.57zm-17.8 5.676h4.547a2.11 2.11 0 000-4.219H44.04a2.11 2.11 0 000 4.22zm31.05-.007h4.546a2.11 2.11 0 100-4.219H75.09a2.11 2.11 0 100 4.219z" fill="#00E1BE"/><defs><linearGradient id="paint0_linear_1_121" x1="-60.023" y1="132.441" x2="92.748" y2="28.183" gradientUnits="userSpaceOnUse"><stop stop-color="#003478"/><stop offset="1" stop-color="#fff"/></linearGradient></defs></svg>