<svg width="106" height="112" fill="none" xmlns="http://www.w3.org/2000/svg"><path d="M49.017 2.3a7.966 7.966 0 017.966 0l37.309 21.54a7.966 7.966 0 013.983 6.899v43.08a7.966 7.966 0 01-3.983 6.9l-37.309 21.54a7.967 7.967 0 01-7.966 0l-37.309-21.54a7.966 7.966 0 01-3.983-6.9V30.74a7.966 7.966 0 013.983-6.9L49.017 2.3z" fill="url(#paint0_linear_1_10)" fill-opacity=".2"/><path d="M86.528 52.984c-8.541-5.785-17.52-8.614-26.683-8.405-8.468.193-17.38 2.998-26.485 8.337-.6.353-.97.997-.97 1.694v23.11c0 4.09.61 7.769 1.814 10.935 1.406 3.698 3.626 6.713 6.598 8.961L58.72 111.17a1.965 1.965 0 002.367 0l17.901-13.556c2.969-2.248 5.187-5.262 6.591-8.959 1.202-3.163 1.811-6.84 1.811-10.928V54.61c0-.652-.323-1.26-.862-1.626zm-3.06 24.744c0 7.68-2.304 13.317-6.847 16.757l-16.719 12.659-16.734-12.658c-4.548-3.441-6.855-9.081-6.855-16.765V55.744c16.988-9.63 32.434-9.657 47.154-.081v22.065z" fill="#00E1BE"/><path d="M58.63 58.054l-13.563 12.08a2.069 2.069 0 00-.21 2.84c.696.844 1.92.942 2.732.218l.686-.612v12.976c0 1.112.867 2.013 1.937 2.013h19.355c1.07 0 1.938-.901 1.938-2.013V72.58l.687.612a1.886 1.886 0 002.731-.218 2.068 2.068 0 00-.21-2.84l-3.208-2.857v-4.809c0-1.111-.867-2.013-1.938-2.013-1.07 0-1.937.902-1.937 2.013v1.357l-6.479-5.77a1.882 1.882 0 00-2.522 0zm9 25.489H52.15s-.015-14.24-.043-14.376l7.783-6.932 7.76 6.911c-.012.088-.02 14.397-.02 14.397z" fill="#00E1BE"/><defs><linearGradient id="paint0_linear_1_10" x1="-60.023" y1="132.441" x2="92.748" y2="28.183" gradientUnits="userSpaceOnUse"><stop stop-color="#003478"/><stop offset="1" stop-color="#fff"/></linearGradient></defs></svg>