<svg width="106" height="112" fill="none" xmlns="http://www.w3.org/2000/svg"><path d="M49.017 2.3a7.966 7.966 0 017.966 0l37.309 21.54a7.966 7.966 0 013.983 6.899v43.08a7.966 7.966 0 01-3.983 6.9l-37.309 21.54a7.967 7.967 0 01-7.966 0l-37.309-21.54a7.966 7.966 0 01-3.983-6.9V30.74a7.966 7.966 0 013.983-6.9L49.017 2.3z" fill="url(#paint0_linear_1_137)" fill-opacity=".2"/><path d="M91.345 74.776C90.042 66.622 85.86 59.15 79.57 53.735a35.096 35.096 0 00-20.84-8.426v-3.741h-4.1v3.741a35.094 35.094 0 00-20.84 8.426c-6.29 5.414-10.473 12.887-11.776 21.041l-.38 2.375h4.673l.585-1.062a8.876 8.876 0 017.773-4.6 8.876 8.876 0 017.773 4.6l.584 1.062h5.3l.585-1.062a8.876 8.876 0 017.773-4.6 8.875 8.875 0 017.773 4.6l.584 1.062h5.301l.585-1.062a8.875 8.875 0 017.773-4.6 8.875 8.875 0 017.772 4.6l.585 1.062h4.673l-.38-2.375zm-56.681-7.389a12.95 12.95 0 00-7.041 2.08 30.797 30.797 0 0123.28-19.587c-2.93 3.596-5.051 8.324-6.234 13.97a50.373 50.373 0 00-.959 7.217 12.967 12.967 0 00-9.047-3.68zm22.015 0c-3.33 0-6.475 1.28-8.842 3.485.392-5.591 2.072-15.512 8.841-21.016 6.749 5.491 8.437 15.414 8.836 21.01a12.966 12.966 0 00-8.835-3.479zm22.016 0a12.968 12.968 0 00-9.047 3.68 50.42 50.42 0 00-.958-7.217c-1.184-5.646-3.305-10.374-6.235-13.97a30.796 30.796 0 0123.28 19.587 12.956 12.956 0 00-7.04-2.08zM63.397 82.675H49.962v7.73h-7.73v13.435h7.73v7.73h13.435v-7.73h7.73V90.405h-7.73v-7.73zm3.629 11.832v5.231h-7.73v7.73h-5.232v-7.73h-7.73v-5.231h7.73v-7.73h5.232v7.73h7.73z" fill="#00E1BE"/><defs><linearGradient id="paint0_linear_1_137" x1="-60.023" y1="132.441" x2="92.748" y2="28.183" gradientUnits="userSpaceOnUse"><stop stop-color="#003478"/><stop offset="1" stop-color="#fff"/></linearGradient></defs></svg>