<svg width="46" height="49" fill="none" xmlns="http://www.w3.org/2000/svg"><path d="M16.636 15.234c0 3.31 2.819 6.002 6.284 6.002s6.284-2.693 6.284-6.002c0-.812-.673-1.472-1.5-1.472h-9.568c-.827 0-1.5.66-1.5 1.472zm10.672.403c-.217 2.087-2.102 3.724-4.388 3.724s-4.17-1.637-4.388-3.724h8.776zm-8.79-7.76c-.999 0-1.938.389-2.644 1.096a.937.937 0 101.327 1.325 1.85 1.85 0 011.317-.546c.497 0 .965.194 1.317.546a.934.934 0 001.326 0 .937.937 0 000-1.325 3.712 3.712 0 00-2.643-1.096zm7.492 2.486a1.85 1.85 0 011.318-.546c.497 0 .965.194 1.317.546a.937.937 0 101.326-1.325 3.712 3.712 0 00-2.643-1.096c-.999 0-1.938.39-2.644 1.096a.938.938 0 001.327 1.325zm19.763 16.578l-1.528-13.278c-.214-1.86-1.715-3.2-3.495-3.112-1.753.088-3.086 1.525-3.17 3.417l-.379 8.636a3.428 3.428 0 00-3.308.875l-2.47 2.452c-2.091 2.07-4.026 4.417-4.026 7.535v6.913a2.469 2.469 0 00-2.02 2.425v2.748a2.468 2.468 0 002.463 2.465h10.58a2.466 2.466 0 002.461-2.465v-2.748a2.468 2.468 0 00-2.017-2.425V39c0-1.473.764-2.586 3.408-4.961 2.13-1.917 3.971-3.574 3.502-7.097zm-6.768 18.61c0 .32-.268.591-.586.591H27.84a.598.598 0 01-.589-.59v-2.748c0-.32.27-.59.59-.59h10.578c.318 0 .586.27.586.59v2.748zm2.013-12.907c-2.73 2.453-4.03 4.03-4.03 6.355v1.34H29.27v-6.873c0-2.296 1.388-4.14 3.472-6.204l2.471-2.453c.607-.602 1.59-.6 2.192.006a1.56 1.56 0 01-.008 2.197l-3.79 3.787a.937.937 0 001.324 1.327l3.792-3.788a3.44 3.44 0 00.3-4.513l.43-9.774c.034-.776.523-1.584 1.389-1.627.777-.04 1.44.587 1.54 1.453l1.529 13.287.002.017c.327 2.44-.71 3.495-2.896 5.463zM18.455 40.38v-6.914c0-3.118-1.935-5.464-4.026-7.535l-2.474-2.452a3.427 3.427 0 00-3.307-.873l-.377-8.638c-.084-1.891-1.417-3.328-3.172-3.417-1.78-.087-3.281 1.252-3.496 3.112L.075 26.942c-.466 3.527 1.374 5.181 3.505 7.097 2.644 2.375 3.409 3.487 3.409 4.96v1.38a2.468 2.468 0 00-2.018 2.425v2.748a2.466 2.466 0 002.461 2.465h10.579a2.466 2.466 0 002.461-2.465v-2.748a2.468 2.468 0 00-2.017-2.424zM4.834 32.644c-2.188-1.966-3.225-3.02-2.9-5.463l.003-.017 1.529-13.287c.1-.866.762-1.492 1.54-1.453.868.044 1.357.851 1.392 1.626l.427 9.775a3.438 3.438 0 00.303 4.514l3.79 3.787a.937.937 0 001.326-1.327l-3.791-3.787a1.558 1.558 0 01-.012-2.195 1.554 1.554 0 012.194-.007l2.474 2.453c2.083 2.063 3.47 3.908 3.47 6.203v6.873H8.865v-1.34c0-2.325-1.3-3.902-4.03-6.355zm13.763 12.908c0 .32-.268.59-.586.59H7.432a.596.596 0 01-.586-.59v-2.748c0-.32.269-.59.586-.59h10.58c.317 0 .585.27.585.59v2.748z" fill="#00E1BE"/><path d="M31.722 3.665A12.364 12.364 0 0025.144.216a12.415 12.415 0 00-7.2.84.938.938 0 00.75 1.718A10.501 10.501 0 0130.397 4.99c4.122 4.126 4.122 10.838 0 14.962a10.488 10.488 0 01-7.47 3.099h-.001a10.491 10.491 0 01-7.473-3.1 10.53 10.53 0 01-2.22-11.708.937.937 0 10-1.719-.747 12.455 12.455 0 00-.833 7.201 12.376 12.376 0 003.446 6.58 12.356 12.356 0 008.799 3.649h.002a12.35 12.35 0 008.795-3.65c4.852-4.853 4.852-12.754 0-17.611z" fill="#00E1BE"/><path d="M14.787 5.265c.24 0 .48-.092.663-.275l.003-.002a.936.936 0 00-.002-1.325.94.94 0 00-1.327 1.327.935.935 0 00.663.275z" fill="#00E1BE"/></svg>