<svg width="28" height="28" fill="none" xmlns="http://www.w3.org/2000/svg"><path opacity=".2" d="M22.125 1.5a4.375 4.375 0 110 8.75H17.75V5.875A4.375 4.375 0 0122.125 1.5zM10.25 10.25H5.875a4.375 4.375 0 114.375-4.375v4.375zm7.5 7.5h4.375a4.375 4.375 0 11-4.375 4.375V17.75zM5.875 26.5a4.375 4.375 0 110-8.75h4.375v4.375A4.375 4.375 0 015.875 26.5z" fill="#05D7E6"/><path d="M5.875 26.5a4.375 4.375 0 110-8.75h4.375v4.375A4.375 4.375 0 015.875 26.5zm16.25-25a4.375 4.375 0 110 8.75H17.75V5.875A4.375 4.375 0 0122.125 1.5zM10.25 10.25H5.875a4.375 4.375 0 114.375-4.375v4.375zm7.5 7.5h4.375a4.375 4.375 0 11-4.375 4.375V17.75zm0-7.5h-7.5v7.5h7.5v-7.5z" stroke="#05D7E6" stroke-width="2.5" stroke-linecap="round" stroke-linejoin="round"/></svg>