<svg width="30" height="32" fill="none" xmlns="http://www.w3.org/2000/svg"><path opacity=".2" d="M1.25 11.922V2.75A1.25 1.25 0 012.5 1.5h25a1.25 1.25 0 011.25 1.25v9.172c0 13.125-11.14 17.469-13.36 18.203a1.125 1.125 0 01-.78 0c-2.22-.734-13.36-5.078-13.36-18.203z" fill="#845CF5"/><path d="M1.25 11.922V2.75A1.25 1.25 0 012.5 1.5h25a1.25 1.25 0 011.25 1.25v9.172c0 13.125-11.14 17.469-13.36 18.203a1.125 1.125 0 01-.78 0c-2.22-.734-13.36-5.078-13.36-18.203z" stroke="#845CF5" stroke-width="2" stroke-linecap="round" stroke-linejoin="round"/><path d="M21.875 10.25L12.703 19l-4.578-4.375" stroke="#845CF5" stroke-width="2" stroke-linecap="round" stroke-linejoin="round"/></svg>