<svg width="27" height="33" fill="none" xmlns="http://www.w3.org/2000/svg"><path d="M13.533.2a12.5 12.5 0 00-8.905 3.763 12.97 12.97 0 00-3.695 9.07c0 3.413 1.346 7.204 3.594 10.136 1.704 2.216 3.752 3.748 5.914 4.506l-1.404 3.587a1.188 1.188 0 00.115 1.094 1.138 1.138 0 00.945.511h6.873a1.117 1.117 0 00.945-.51 1.181 1.181 0 00.114-1.095l-1.403-3.587c2.162-.758 4.21-2.29 5.913-4.506 2.248-2.932 3.594-6.723 3.594-10.136a12.97 12.97 0 00-3.694-9.07A12.5 12.5 0 0013.533.2zm6.973 12.819h-.2a1.148 1.148 0 01-.74-.28 1.187 1.187 0 01-.391-.697 5.828 5.828 0 00-1.59-3.15 5.65 5.65 0 00-3.092-1.62 1.158 1.158 0 01-.747-.48 1.198 1.198 0 01-.041-1.3 1.143 1.143 0 01.714-.514c.147-.033.298-.036.446-.01a7.955 7.955 0 014.338 2.276 8.205 8.205 0 012.234 4.418 1.177 1.177 0 01-.183.88 1.14 1.14 0 01-.748.477z" fill="#188BFE"/></svg>