<svg width="135" height="30" fill="none" xmlns="http://www.w3.org/2000/svg"><path d="M42.265 4.694A5.369 5.369 0 0038.49.918C35.136 0 21.724 0 21.724 0S8.312 0 4.96.882c-1.8.494-3.282 1.977-3.776 3.812C.3 8.047.3 15 .3 15s0 6.988.882 10.306a5.368 5.368 0 003.776 3.776C8.348 30 21.724 30 21.724 30s13.412 0 16.765-.882a5.369 5.369 0 003.776-3.777c.883-3.353.883-10.306.883-10.306s.035-6.988-.883-10.34z" fill="#CD201F"/><path d="M17.453 21.424L28.606 15 17.453 8.577v12.847z" fill="#fff"/><path d="M62.525 27.318c-.847-.565-1.447-1.447-1.8-2.682-.353-1.2-.53-2.824-.53-4.8v-2.718c0-2.012.212-3.635.6-4.87.424-1.236 1.06-2.118 1.906-2.683.883-.565 2.012-.847 3.424-.847 1.376 0 2.506.282 3.353.847.847.565 1.447 1.482 1.835 2.682.388 1.2.6 2.824.6 4.871v2.718c0 2.012-.176 3.6-.565 4.835-.388 1.2-.988 2.118-1.835 2.682-.847.565-2.012.847-3.459.847-1.482-.035-2.682-.317-3.53-.882zm4.765-2.965c.247-.6.352-1.623.352-3v-5.859c0-1.34-.105-2.329-.352-2.964-.248-.635-.636-.918-1.236-.918-.564 0-.988.318-1.2.918-.247.635-.353 1.623-.353 2.965v5.858c0 1.377.106 2.4.353 3 .212.6.636.918 1.236.918.564 0 .953-.282 1.2-.918zm60.388-4.482v.953c0 1.2.035 2.118.106 2.718.07.6.211 1.058.459 1.305.211.283.564.424 1.059.424.634 0 1.059-.247 1.305-.741.247-.494.353-1.306.388-2.47l3.636.211c.035.176.035.388.035.67 0 1.73-.459 3.036-1.412 3.883-.952.847-2.294 1.27-4.023 1.27-2.082 0-3.53-.67-4.377-1.976-.846-1.306-1.271-3.318-1.271-6.07v-3.283c0-2.824.425-4.87 1.306-6.176.883-1.306 2.366-1.942 4.448-1.942 1.447 0 2.576.283 3.353.812.776.53 1.305 1.377 1.623 2.47.318 1.13.459 2.683.459 4.66V19.8h-7.094v.071zm.53-7.906c-.213.282-.354.706-.424 1.306-.071.6-.106 1.518-.106 2.753v1.341h3.106v-1.341c0-1.2-.036-2.118-.106-2.753-.071-.635-.247-1.059-.458-1.306-.213-.247-.566-.388-.989-.388-.494-.035-.812.106-1.023.388zm-75.989 7.553l-4.8-17.4h4.2l1.694 7.87c.424 1.942.741 3.6.953 4.977h.106c.141-.988.459-2.612.953-4.941l1.764-7.906h4.2l-4.87 17.4v8.33h-4.165v-8.33h-.035zM85.572 9.071v18.812h-3.318l-.353-2.294h-.106c-.882 1.73-2.258 2.611-4.058 2.611-1.236 0-2.153-.423-2.753-1.235-.6-.812-.883-2.082-.883-3.847V9.071h4.236v13.8c0 .847.105 1.447.282 1.8s.494.53.918.53a1.81 1.81 0 001.058-.354c.353-.211.6-.494.742-.847V9.071h4.235zm21.706 0v18.812h-3.318l-.353-2.294h-.106c-.882 1.73-2.258 2.611-4.059 2.611-1.235 0-2.152-.423-2.752-1.235-.6-.812-.883-2.082-.883-3.847V9.071h4.236v13.8c0 .847.105 1.447.282 1.8.176.353.494.53.918.53a1.81 1.81 0 001.058-.354c.353-.211.6-.494.742-.847V9.071h4.235z" fill="#CD201F"/><path d="M97.079 5.542h-4.2v22.306h-4.13V5.542h-4.2V2.118h12.53v3.424zm24.212 6.53c-.248-1.2-.671-2.048-1.237-2.577-.564-.53-1.376-.812-2.364-.812a3.81 3.81 0 00-2.188.67 4.314 4.314 0 00-1.553 1.73h-.035V1.166h-4.094v26.682h3.494l.423-1.765h.107c.317.636.811 1.13 1.482 1.518.671.353 1.376.565 2.188.565 1.446 0 2.47-.671 3.141-1.977.671-1.306 1.023-3.388 1.023-6.176v-2.965c-.035-2.153-.141-3.812-.387-4.977zm-3.883 7.658c0 1.377-.071 2.436-.176 3.212-.106.776-.319 1.341-.566 1.659-.282.318-.634.494-1.058.494-.353 0-.67-.07-.953-.247a2.046 2.046 0 01-.706-.741v-10.66c.141-.493.388-.917.741-1.27.354-.317.741-.494 1.129-.494.424 0 .777.177.988.494.248.353.389.918.495 1.694.106.812.141 1.942.141 3.389v2.47h-.035z" fill="#CD201F"/></svg>