<svg width="32" height="32" fill="none" xmlns="http://www.w3.org/2000/svg"><path fill-rule="evenodd" clip-rule="evenodd" d="M20 16.008a9.556 9.556 0 01-.614 3.377 9.578 9.578 0 01-3.38.615h-.013a9.574 9.574 0 01-3.377-.614 9.571 9.571 0 01-.616-3.38v-.013c0-1.154.208-2.298.614-3.377a9.569 9.569 0 013.38-.616h.013a9.53 9.53 0 013.378.616A9.565 9.565 0 0120 15.993v.014zm11.777-2.675h-9.339l6.604-6.604a16.086 16.086 0 00-3.771-3.771l-6.604 6.604V.222A16.1 16.1 0 0016.008 0h-.016c-.891 0-1.78.075-2.659.222v9.34L6.73 2.958a16.077 16.077 0 00-2.042 1.728l-.003.002A16.08 16.08 0 002.958 6.73l6.604 6.603H.222S0 15.087 0 15.993v.012c0 .907.077 1.796.222 2.662h9.34L2.958 25.27a16.09 16.09 0 003.772 3.771l6.603-6.604v9.34c.864.144 1.75.221 2.656.222h.022c.906 0 1.792-.078 2.656-.223v-9.339l6.604 6.604a16.082 16.082 0 002.042-1.728l.001-.001a16.104 16.104 0 001.727-2.042l-6.603-6.604h9.34c.144-.864.221-1.75.222-2.656v-.022c0-.906-.078-1.792-.223-2.656z" fill="#FF4A00"/></svg>